<mxfile host="app.diagrams.net" agent="Mozilla/5.0 (X11; Linux x86_64; rv:143.0) Gecko/20100101 Firefox/143.0" version="28.2.5">
  <diagram name="Page-1" id="rdazZUCnlGdwmjnpoRqp">
    <mxGraphModel dx="1240" dy="692" grid="1" gridSize="10" guides="1" tooltips="1" connect="1" arrows="1" fold="1" page="1" pageScale="1" pageWidth="850" pageHeight="1100" math="0" shadow="0">
      <root>
        <mxCell id="0" />
        <mxCell id="1" parent="0" />
        <mxCell id="AysuAXz7RPZp6C5GMnTe-105" style="edgeStyle=orthogonalEdgeStyle;rounded=0;orthogonalLoop=1;jettySize=auto;html=1;exitX=0.25;exitY=1;exitDx=0;exitDy=0;" edge="1" parent="1" source="AysuAXz7RPZp6C5GMnTe-48" target="AysuAXz7RPZp6C5GMnTe-100">
          <mxGeometry relative="1" as="geometry" />
        </mxCell>
        <mxCell id="AysuAXz7RPZp6C5GMnTe-106" style="edgeStyle=orthogonalEdgeStyle;rounded=0;orthogonalLoop=1;jettySize=auto;html=1;exitX=0.75;exitY=1;exitDx=0;exitDy=0;entryX=0.5;entryY=0;entryDx=0;entryDy=0;" edge="1" parent="1" source="AysuAXz7RPZp6C5GMnTe-48" target="AysuAXz7RPZp6C5GMnTe-102">
          <mxGeometry relative="1" as="geometry" />
        </mxCell>
        <mxCell id="AysuAXz7RPZp6C5GMnTe-110" style="edgeStyle=orthogonalEdgeStyle;rounded=0;orthogonalLoop=1;jettySize=auto;html=1;exitX=0.5;exitY=1;exitDx=0;exitDy=0;entryX=0.5;entryY=0;entryDx=0;entryDy=0;" edge="1" parent="1" source="AysuAXz7RPZp6C5GMnTe-48" target="AysuAXz7RPZp6C5GMnTe-109">
          <mxGeometry relative="1" as="geometry" />
        </mxCell>
        <mxCell id="AysuAXz7RPZp6C5GMnTe-210" style="edgeStyle=orthogonalEdgeStyle;rounded=0;orthogonalLoop=1;jettySize=auto;html=1;entryX=0;entryY=0.5;entryDx=0;entryDy=0;" edge="1" parent="1" source="AysuAXz7RPZp6C5GMnTe-48" target="AysuAXz7RPZp6C5GMnTe-208">
          <mxGeometry relative="1" as="geometry" />
        </mxCell>
        <mxCell id="AysuAXz7RPZp6C5GMnTe-48" value="&lt;div&gt;Alunos&lt;/div&gt;" style="whiteSpace=wrap;html=1;align=center;" vertex="1" parent="1">
          <mxGeometry x="450" y="590" width="100" height="40" as="geometry" />
        </mxCell>
        <mxCell id="AysuAXz7RPZp6C5GMnTe-49" value="Curso" style="whiteSpace=wrap;html=1;align=center;" vertex="1" parent="1">
          <mxGeometry x="690" y="490" width="100" height="40" as="geometry" />
        </mxCell>
        <mxCell id="AysuAXz7RPZp6C5GMnTe-51" value="possui" style="shape=rhombus;perimeter=rhombusPerimeter;whiteSpace=wrap;html=1;align=center;" vertex="1" parent="1">
          <mxGeometry x="680" y="340" width="120" height="60" as="geometry" />
        </mxCell>
        <mxCell id="AysuAXz7RPZp6C5GMnTe-53" value="Área" style="whiteSpace=wrap;html=1;align=center;" vertex="1" parent="1">
          <mxGeometry x="870" y="350" width="100" height="40" as="geometry" />
        </mxCell>
        <mxCell id="AysuAXz7RPZp6C5GMnTe-67" value="" style="endArrow=none;html=1;rounded=0;entryX=1;entryY=0.5;entryDx=0;entryDy=0;exitX=0;exitY=0.5;exitDx=0;exitDy=0;" edge="1" parent="1" source="AysuAXz7RPZp6C5GMnTe-53" target="AysuAXz7RPZp6C5GMnTe-51">
          <mxGeometry relative="1" as="geometry">
            <mxPoint x="700" y="420" as="sourcePoint" />
            <mxPoint x="860" y="420" as="targetPoint" />
          </mxGeometry>
        </mxCell>
        <mxCell id="AysuAXz7RPZp6C5GMnTe-68" value="1" style="resizable=0;html=1;whiteSpace=wrap;align=right;verticalAlign=bottom;" connectable="0" vertex="1" parent="AysuAXz7RPZp6C5GMnTe-67">
          <mxGeometry x="1" relative="1" as="geometry">
            <mxPoint x="10" as="offset" />
          </mxGeometry>
        </mxCell>
        <mxCell id="AysuAXz7RPZp6C5GMnTe-69" value="" style="shape=link;html=1;rounded=0;exitX=0.5;exitY=0;exitDx=0;exitDy=0;entryX=0.5;entryY=1;entryDx=0;entryDy=0;" edge="1" parent="1" source="AysuAXz7RPZp6C5GMnTe-49" target="AysuAXz7RPZp6C5GMnTe-51">
          <mxGeometry relative="1" as="geometry">
            <mxPoint x="700" y="430" as="sourcePoint" />
            <mxPoint x="860" y="430" as="targetPoint" />
          </mxGeometry>
        </mxCell>
        <mxCell id="AysuAXz7RPZp6C5GMnTe-70" value="N" style="resizable=0;html=1;whiteSpace=wrap;align=right;verticalAlign=bottom;" connectable="0" vertex="1" parent="AysuAXz7RPZp6C5GMnTe-69">
          <mxGeometry x="1" relative="1" as="geometry">
            <mxPoint x="-10" y="20" as="offset" />
          </mxGeometry>
        </mxCell>
        <mxCell id="AysuAXz7RPZp6C5GMnTe-71" value="integra" style="shape=rhombus;perimeter=rhombusPerimeter;whiteSpace=wrap;html=1;align=center;" vertex="1" parent="1">
          <mxGeometry x="990" y="340" width="120" height="60" as="geometry" />
        </mxCell>
        <mxCell id="AysuAXz7RPZp6C5GMnTe-73" value="" style="endArrow=none;html=1;rounded=0;exitX=1;exitY=0.5;exitDx=0;exitDy=0;entryX=0;entryY=0.5;entryDx=0;entryDy=0;" edge="1" parent="1" source="AysuAXz7RPZp6C5GMnTe-53" target="AysuAXz7RPZp6C5GMnTe-71">
          <mxGeometry relative="1" as="geometry">
            <mxPoint x="1000" y="360" as="sourcePoint" />
            <mxPoint x="1160" y="360" as="targetPoint" />
          </mxGeometry>
        </mxCell>
        <mxCell id="AysuAXz7RPZp6C5GMnTe-74" value="1" style="resizable=0;html=1;whiteSpace=wrap;align=right;verticalAlign=bottom;" connectable="0" vertex="1" parent="AysuAXz7RPZp6C5GMnTe-73">
          <mxGeometry x="1" relative="1" as="geometry" />
        </mxCell>
        <mxCell id="AysuAXz7RPZp6C5GMnTe-75" value="" style="endArrow=none;html=1;rounded=0;exitX=0.5;exitY=0;exitDx=0;exitDy=0;entryX=0.5;entryY=0;entryDx=0;entryDy=0;" edge="1" parent="1" source="AysuAXz7RPZp6C5GMnTe-53" target="AysuAXz7RPZp6C5GMnTe-71">
          <mxGeometry relative="1" as="geometry">
            <mxPoint x="940" y="300" as="sourcePoint" />
            <mxPoint x="1190" y="290" as="targetPoint" />
            <Array as="points">
              <mxPoint x="920" y="310" />
              <mxPoint x="1050" y="310" />
            </Array>
          </mxGeometry>
        </mxCell>
        <mxCell id="AysuAXz7RPZp6C5GMnTe-76" value="N" style="resizable=0;html=1;whiteSpace=wrap;align=right;verticalAlign=bottom;" connectable="0" vertex="1" parent="AysuAXz7RPZp6C5GMnTe-75">
          <mxGeometry x="1" relative="1" as="geometry">
            <mxPoint x="-10" as="offset" />
          </mxGeometry>
        </mxCell>
        <mxCell id="AysuAXz7RPZp6C5GMnTe-84" style="edgeStyle=orthogonalEdgeStyle;rounded=0;orthogonalLoop=1;jettySize=auto;html=1;exitX=0.5;exitY=1;exitDx=0;exitDy=0;entryX=0.25;entryY=0;entryDx=0;entryDy=0;" edge="1" parent="1" source="AysuAXz7RPZp6C5GMnTe-79" target="AysuAXz7RPZp6C5GMnTe-53">
          <mxGeometry relative="1" as="geometry">
            <Array as="points">
              <mxPoint x="830" y="330" />
              <mxPoint x="895" y="330" />
            </Array>
          </mxGeometry>
        </mxCell>
        <mxCell id="AysuAXz7RPZp6C5GMnTe-79" value="Sigla" style="ellipse;whiteSpace=wrap;html=1;align=center;fontStyle=4;" vertex="1" parent="1">
          <mxGeometry x="780" y="280" width="100" height="40" as="geometry" />
        </mxCell>
        <mxCell id="AysuAXz7RPZp6C5GMnTe-160" style="edgeStyle=orthogonalEdgeStyle;rounded=0;orthogonalLoop=1;jettySize=auto;html=1;entryX=0.5;entryY=1;entryDx=0;entryDy=0;" edge="1" parent="1" source="AysuAXz7RPZp6C5GMnTe-80" target="AysuAXz7RPZp6C5GMnTe-53">
          <mxGeometry relative="1" as="geometry">
            <Array as="points">
              <mxPoint x="950" y="410" />
              <mxPoint x="920" y="410" />
            </Array>
          </mxGeometry>
        </mxCell>
        <mxCell id="AysuAXz7RPZp6C5GMnTe-80" value="Nome" style="ellipse;whiteSpace=wrap;html=1;align=center;" vertex="1" parent="1">
          <mxGeometry x="900" y="420" width="100" height="40" as="geometry" />
        </mxCell>
        <mxCell id="AysuAXz7RPZp6C5GMnTe-98" style="edgeStyle=orthogonalEdgeStyle;rounded=0;orthogonalLoop=1;jettySize=auto;html=1;exitX=1;exitY=1;exitDx=0;exitDy=0;entryX=0.25;entryY=0;entryDx=0;entryDy=0;" edge="1" parent="1" source="AysuAXz7RPZp6C5GMnTe-87" target="AysuAXz7RPZp6C5GMnTe-49">
          <mxGeometry relative="1" as="geometry" />
        </mxCell>
        <mxCell id="AysuAXz7RPZp6C5GMnTe-87" value="Sigla" style="ellipse;whiteSpace=wrap;html=1;align=center;fontStyle=4;" vertex="1" parent="1">
          <mxGeometry x="570" y="430" width="100" height="40" as="geometry" />
        </mxCell>
        <mxCell id="AysuAXz7RPZp6C5GMnTe-99" style="edgeStyle=orthogonalEdgeStyle;rounded=0;orthogonalLoop=1;jettySize=auto;html=1;exitX=0;exitY=1;exitDx=0;exitDy=0;entryX=0.75;entryY=0;entryDx=0;entryDy=0;" edge="1" parent="1" source="AysuAXz7RPZp6C5GMnTe-88" target="AysuAXz7RPZp6C5GMnTe-49">
          <mxGeometry relative="1" as="geometry" />
        </mxCell>
        <mxCell id="AysuAXz7RPZp6C5GMnTe-88" value="Nome" style="ellipse;whiteSpace=wrap;html=1;align=center;fontStyle=0;" vertex="1" parent="1">
          <mxGeometry x="780" y="430" width="100" height="40" as="geometry" />
        </mxCell>
        <mxCell id="AysuAXz7RPZp6C5GMnTe-89" value="Custo" style="ellipse;whiteSpace=wrap;html=1;align=center;fontStyle=0;" vertex="1" parent="1">
          <mxGeometry x="560" y="530" width="100" height="40" as="geometry" />
        </mxCell>
        <mxCell id="AysuAXz7RPZp6C5GMnTe-96" style="edgeStyle=orthogonalEdgeStyle;rounded=0;orthogonalLoop=1;jettySize=auto;html=1;entryX=0.75;entryY=1;entryDx=0;entryDy=0;" edge="1" parent="1" source="AysuAXz7RPZp6C5GMnTe-90" target="AysuAXz7RPZp6C5GMnTe-49">
          <mxGeometry relative="1" as="geometry" />
        </mxCell>
        <mxCell id="AysuAXz7RPZp6C5GMnTe-90" value="Professores" style="ellipse;shape=doubleEllipse;margin=3;whiteSpace=wrap;html=1;align=center;" vertex="1" parent="1">
          <mxGeometry x="800" y="540" width="100" height="40" as="geometry" />
        </mxCell>
        <mxCell id="AysuAXz7RPZp6C5GMnTe-94" style="edgeStyle=orthogonalEdgeStyle;rounded=0;orthogonalLoop=1;jettySize=auto;html=1;" edge="1" parent="1" source="AysuAXz7RPZp6C5GMnTe-91" target="AysuAXz7RPZp6C5GMnTe-90">
          <mxGeometry relative="1" as="geometry">
            <Array as="points">
              <mxPoint x="920" y="580" />
              <mxPoint x="920" y="560" />
            </Array>
          </mxGeometry>
        </mxCell>
        <mxCell id="AysuAXz7RPZp6C5GMnTe-91" value="Nome" style="ellipse;whiteSpace=wrap;html=1;align=center;" vertex="1" parent="1">
          <mxGeometry x="930" y="560" width="100" height="40" as="geometry" />
        </mxCell>
        <mxCell id="AysuAXz7RPZp6C5GMnTe-95" style="edgeStyle=orthogonalEdgeStyle;rounded=0;orthogonalLoop=1;jettySize=auto;html=1;entryX=0.5;entryY=1;entryDx=0;entryDy=0;" edge="1" parent="1" source="AysuAXz7RPZp6C5GMnTe-92" target="AysuAXz7RPZp6C5GMnTe-90">
          <mxGeometry relative="1" as="geometry">
            <Array as="points">
              <mxPoint x="860" y="600" />
              <mxPoint x="850" y="600" />
            </Array>
          </mxGeometry>
        </mxCell>
        <mxCell id="AysuAXz7RPZp6C5GMnTe-92" value="CPF" style="ellipse;whiteSpace=wrap;html=1;align=center;" vertex="1" parent="1">
          <mxGeometry x="810" y="610" width="100" height="40" as="geometry" />
        </mxCell>
        <mxCell id="AysuAXz7RPZp6C5GMnTe-100" value="CPF" style="ellipse;whiteSpace=wrap;html=1;align=center;fontStyle=4;" vertex="1" parent="1">
          <mxGeometry x="370" y="670" width="100" height="40" as="geometry" />
        </mxCell>
        <mxCell id="AysuAXz7RPZp6C5GMnTe-107" style="edgeStyle=orthogonalEdgeStyle;rounded=0;orthogonalLoop=1;jettySize=auto;html=1;exitX=1;exitY=0.5;exitDx=0;exitDy=0;" edge="1" parent="1" source="AysuAXz7RPZp6C5GMnTe-102" target="AysuAXz7RPZp6C5GMnTe-103">
          <mxGeometry relative="1" as="geometry" />
        </mxCell>
        <mxCell id="AysuAXz7RPZp6C5GMnTe-108" style="edgeStyle=orthogonalEdgeStyle;rounded=0;orthogonalLoop=1;jettySize=auto;html=1;exitX=0.5;exitY=1;exitDx=0;exitDy=0;" edge="1" parent="1" source="AysuAXz7RPZp6C5GMnTe-102" target="AysuAXz7RPZp6C5GMnTe-104">
          <mxGeometry relative="1" as="geometry" />
        </mxCell>
        <mxCell id="AysuAXz7RPZp6C5GMnTe-102" value="Nome" style="ellipse;whiteSpace=wrap;html=1;align=center;fontStyle=0;" vertex="1" parent="1">
          <mxGeometry x="560" y="670" width="100" height="40" as="geometry" />
        </mxCell>
        <mxCell id="AysuAXz7RPZp6C5GMnTe-103" value="Primeiro Nome" style="ellipse;whiteSpace=wrap;html=1;align=center;fontStyle=0;" vertex="1" parent="1">
          <mxGeometry x="670" y="710" width="100" height="40" as="geometry" />
        </mxCell>
        <mxCell id="AysuAXz7RPZp6C5GMnTe-104" value="Sobrenome" style="ellipse;whiteSpace=wrap;html=1;align=center;fontStyle=0;" vertex="1" parent="1">
          <mxGeometry x="570" y="750" width="100" height="40" as="geometry" />
        </mxCell>
        <mxCell id="AysuAXz7RPZp6C5GMnTe-109" value="Sexo" style="ellipse;whiteSpace=wrap;html=1;align=center;fontStyle=0;" vertex="1" parent="1">
          <mxGeometry x="460" y="710" width="100" height="40" as="geometry" />
        </mxCell>
        <mxCell id="AysuAXz7RPZp6C5GMnTe-113" value="matricula" style="shape=rhombus;perimeter=rhombusPerimeter;whiteSpace=wrap;html=1;align=center;" vertex="1" parent="1">
          <mxGeometry x="440" y="480" width="120" height="60" as="geometry" />
        </mxCell>
        <mxCell id="AysuAXz7RPZp6C5GMnTe-114" value="" style="endArrow=none;html=1;rounded=0;exitX=0;exitY=0.5;exitDx=0;exitDy=0;entryX=1;entryY=0.5;entryDx=0;entryDy=0;" edge="1" parent="1" source="AysuAXz7RPZp6C5GMnTe-49" target="AysuAXz7RPZp6C5GMnTe-113">
          <mxGeometry relative="1" as="geometry">
            <mxPoint x="450" y="500" as="sourcePoint" />
            <mxPoint x="610" y="500" as="targetPoint" />
          </mxGeometry>
        </mxCell>
        <mxCell id="AysuAXz7RPZp6C5GMnTe-115" value="N" style="resizable=0;html=1;whiteSpace=wrap;align=right;verticalAlign=bottom;" connectable="0" vertex="1" parent="AysuAXz7RPZp6C5GMnTe-114">
          <mxGeometry x="1" relative="1" as="geometry">
            <mxPoint x="10" as="offset" />
          </mxGeometry>
        </mxCell>
        <mxCell id="AysuAXz7RPZp6C5GMnTe-116" value="" style="endArrow=none;html=1;rounded=0;exitX=0.5;exitY=0;exitDx=0;exitDy=0;entryX=0.5;entryY=1;entryDx=0;entryDy=0;" edge="1" parent="1" source="AysuAXz7RPZp6C5GMnTe-48" target="AysuAXz7RPZp6C5GMnTe-113">
          <mxGeometry relative="1" as="geometry">
            <mxPoint x="560" y="490" as="sourcePoint" />
            <mxPoint x="720" y="490" as="targetPoint" />
          </mxGeometry>
        </mxCell>
        <mxCell id="AysuAXz7RPZp6C5GMnTe-117" value="N" style="resizable=0;html=1;whiteSpace=wrap;align=right;verticalAlign=bottom;" connectable="0" vertex="1" parent="AysuAXz7RPZp6C5GMnTe-116">
          <mxGeometry x="1" relative="1" as="geometry">
            <mxPoint x="-5" y="20" as="offset" />
          </mxGeometry>
        </mxCell>
        <mxCell id="AysuAXz7RPZp6C5GMnTe-120" style="edgeStyle=orthogonalEdgeStyle;rounded=0;orthogonalLoop=1;jettySize=auto;html=1;entryX=0.5;entryY=0;entryDx=0;entryDy=0;" edge="1" parent="1" source="AysuAXz7RPZp6C5GMnTe-119" target="AysuAXz7RPZp6C5GMnTe-113">
          <mxGeometry relative="1" as="geometry">
            <Array as="points">
              <mxPoint x="470" y="460" />
              <mxPoint x="500" y="460" />
            </Array>
          </mxGeometry>
        </mxCell>
        <mxCell id="AysuAXz7RPZp6C5GMnTe-119" value="Data" style="ellipse;whiteSpace=wrap;html=1;align=center;" vertex="1" parent="1">
          <mxGeometry x="420" y="410" width="100" height="40" as="geometry" />
        </mxCell>
        <mxCell id="AysuAXz7RPZp6C5GMnTe-122" style="edgeStyle=orthogonalEdgeStyle;rounded=0;orthogonalLoop=1;jettySize=auto;html=1;entryX=0;entryY=0.5;entryDx=0;entryDy=0;" edge="1" parent="1" source="AysuAXz7RPZp6C5GMnTe-121" target="AysuAXz7RPZp6C5GMnTe-113">
          <mxGeometry relative="1" as="geometry" />
        </mxCell>
        <mxCell id="AysuAXz7RPZp6C5GMnTe-121" value="Pago" style="ellipse;whiteSpace=wrap;html=1;align=center;" vertex="1" parent="1">
          <mxGeometry x="300" y="460" width="100" height="40" as="geometry" />
        </mxCell>
        <mxCell id="AysuAXz7RPZp6C5GMnTe-123" value="possui" style="shape=rhombus;perimeter=rhombusPerimeter;whiteSpace=wrap;html=1;align=center;" vertex="1" parent="1">
          <mxGeometry x="890" y="480" width="120" height="60" as="geometry" />
        </mxCell>
        <mxCell id="AysuAXz7RPZp6C5GMnTe-135" style="edgeStyle=orthogonalEdgeStyle;rounded=0;orthogonalLoop=1;jettySize=auto;html=1;exitX=0.75;exitY=0;exitDx=0;exitDy=0;entryX=0;entryY=1;entryDx=0;entryDy=0;endArrow=none;endFill=0;" edge="1" parent="1" source="AysuAXz7RPZp6C5GMnTe-124" target="AysuAXz7RPZp6C5GMnTe-134">
          <mxGeometry relative="1" as="geometry">
            <Array as="points">
              <mxPoint x="1135" y="480" />
              <mxPoint x="1195" y="480" />
            </Array>
          </mxGeometry>
        </mxCell>
        <mxCell id="AysuAXz7RPZp6C5GMnTe-124" value="Módulo" style="whiteSpace=wrap;html=1;align=center;" vertex="1" parent="1">
          <mxGeometry x="1060" y="490" width="100" height="40" as="geometry" />
        </mxCell>
        <mxCell id="AysuAXz7RPZp6C5GMnTe-128" value="" style="endArrow=none;html=1;rounded=0;entryX=0;entryY=0.5;entryDx=0;entryDy=0;" edge="1" parent="1" target="AysuAXz7RPZp6C5GMnTe-123">
          <mxGeometry relative="1" as="geometry">
            <mxPoint x="790" y="509.66" as="sourcePoint" />
            <mxPoint x="950" y="509.66" as="targetPoint" />
          </mxGeometry>
        </mxCell>
        <mxCell id="AysuAXz7RPZp6C5GMnTe-129" value="1" style="resizable=0;html=1;whiteSpace=wrap;align=right;verticalAlign=bottom;" connectable="0" vertex="1" parent="AysuAXz7RPZp6C5GMnTe-128">
          <mxGeometry x="1" relative="1" as="geometry" />
        </mxCell>
        <mxCell id="AysuAXz7RPZp6C5GMnTe-130" value="" style="shape=link;html=1;rounded=0;entryX=1;entryY=0.5;entryDx=0;entryDy=0;exitX=0;exitY=0.5;exitDx=0;exitDy=0;" edge="1" parent="1" source="AysuAXz7RPZp6C5GMnTe-124" target="AysuAXz7RPZp6C5GMnTe-123">
          <mxGeometry relative="1" as="geometry">
            <mxPoint x="1090" y="550" as="sourcePoint" />
            <mxPoint x="1250" y="550" as="targetPoint" />
          </mxGeometry>
        </mxCell>
        <mxCell id="AysuAXz7RPZp6C5GMnTe-131" value="N" style="resizable=0;html=1;whiteSpace=wrap;align=right;verticalAlign=bottom;" connectable="0" vertex="1" parent="AysuAXz7RPZp6C5GMnTe-130">
          <mxGeometry x="1" relative="1" as="geometry">
            <mxPoint x="10" as="offset" />
          </mxGeometry>
        </mxCell>
        <mxCell id="AysuAXz7RPZp6C5GMnTe-136" value="" style="edgeStyle=orthogonalEdgeStyle;rounded=0;orthogonalLoop=1;jettySize=auto;html=1;endArrow=none;endFill=0;" edge="1" parent="1" source="AysuAXz7RPZp6C5GMnTe-133" target="AysuAXz7RPZp6C5GMnTe-124">
          <mxGeometry relative="1" as="geometry" />
        </mxCell>
        <mxCell id="AysuAXz7RPZp6C5GMnTe-133" value="Sigla" style="ellipse;whiteSpace=wrap;html=1;align=center;fontStyle=4;" vertex="1" parent="1">
          <mxGeometry x="1060" y="420" width="100" height="40" as="geometry" />
        </mxCell>
        <mxCell id="AysuAXz7RPZp6C5GMnTe-134" value="Nome" style="ellipse;whiteSpace=wrap;html=1;align=center;fontStyle=0;" vertex="1" parent="1">
          <mxGeometry x="1180" y="420" width="100" height="40" as="geometry" />
        </mxCell>
        <mxCell id="AysuAXz7RPZp6C5GMnTe-139" value="Tópico" style="shape=ext;margin=3;double=1;whiteSpace=wrap;html=1;align=center;" vertex="1" parent="1">
          <mxGeometry x="1200" y="580" width="100" height="40" as="geometry" />
        </mxCell>
        <mxCell id="AysuAXz7RPZp6C5GMnTe-140" value="possui" style="shape=rhombus;double=1;perimeter=rhombusPerimeter;whiteSpace=wrap;html=1;align=center;" vertex="1" parent="1">
          <mxGeometry x="1190" y="480" width="120" height="60" as="geometry" />
        </mxCell>
        <mxCell id="AysuAXz7RPZp6C5GMnTe-146" value="" style="shape=link;html=1;rounded=0;entryX=0.5;entryY=1;entryDx=0;entryDy=0;exitX=0.5;exitY=0;exitDx=0;exitDy=0;" edge="1" parent="1" source="AysuAXz7RPZp6C5GMnTe-139" target="AysuAXz7RPZp6C5GMnTe-140">
          <mxGeometry relative="1" as="geometry">
            <mxPoint x="1150" y="580" as="sourcePoint" />
            <mxPoint x="1310" y="580" as="targetPoint" />
          </mxGeometry>
        </mxCell>
        <mxCell id="AysuAXz7RPZp6C5GMnTe-147" value="N" style="resizable=0;html=1;whiteSpace=wrap;align=right;verticalAlign=bottom;" connectable="0" vertex="1" parent="AysuAXz7RPZp6C5GMnTe-146">
          <mxGeometry x="1" relative="1" as="geometry">
            <mxPoint x="-10" y="20" as="offset" />
          </mxGeometry>
        </mxCell>
        <mxCell id="AysuAXz7RPZp6C5GMnTe-148" value="" style="endArrow=none;html=1;rounded=0;exitX=1;exitY=0.5;exitDx=0;exitDy=0;entryX=0;entryY=0.5;entryDx=0;entryDy=0;" edge="1" parent="1" source="AysuAXz7RPZp6C5GMnTe-124" target="AysuAXz7RPZp6C5GMnTe-140">
          <mxGeometry relative="1" as="geometry">
            <mxPoint x="1130" y="579.6" as="sourcePoint" />
            <mxPoint x="1290" y="579.6" as="targetPoint" />
          </mxGeometry>
        </mxCell>
        <mxCell id="AysuAXz7RPZp6C5GMnTe-149" value="1" style="resizable=0;html=1;whiteSpace=wrap;align=right;verticalAlign=bottom;" connectable="0" vertex="1" parent="AysuAXz7RPZp6C5GMnTe-148">
          <mxGeometry x="1" relative="1" as="geometry" />
        </mxCell>
        <mxCell id="AysuAXz7RPZp6C5GMnTe-155" style="edgeStyle=orthogonalEdgeStyle;rounded=0;orthogonalLoop=1;jettySize=auto;html=1;entryX=0;entryY=0.5;entryDx=0;entryDy=0;" edge="1" parent="1" source="AysuAXz7RPZp6C5GMnTe-150" target="AysuAXz7RPZp6C5GMnTe-139">
          <mxGeometry relative="1" as="geometry">
            <Array as="points">
              <mxPoint x="1180" y="590" />
              <mxPoint x="1180" y="600" />
            </Array>
          </mxGeometry>
        </mxCell>
        <mxCell id="AysuAXz7RPZp6C5GMnTe-150" value="Sigla" style="ellipse;whiteSpace=wrap;html=1;align=center;fontStyle=4;" vertex="1" parent="1">
          <mxGeometry x="1060" y="570" width="100" height="40" as="geometry" />
        </mxCell>
        <mxCell id="AysuAXz7RPZp6C5GMnTe-154" style="edgeStyle=orthogonalEdgeStyle;rounded=0;orthogonalLoop=1;jettySize=auto;html=1;entryX=0.25;entryY=1;entryDx=0;entryDy=0;" edge="1" parent="1" source="AysuAXz7RPZp6C5GMnTe-151" target="AysuAXz7RPZp6C5GMnTe-139">
          <mxGeometry relative="1" as="geometry" />
        </mxCell>
        <mxCell id="AysuAXz7RPZp6C5GMnTe-151" value="Nome" style="ellipse;whiteSpace=wrap;html=1;align=center;fontStyle=0;" vertex="1" parent="1">
          <mxGeometry x="1090" y="630" width="100" height="40" as="geometry" />
        </mxCell>
        <mxCell id="AysuAXz7RPZp6C5GMnTe-153" style="edgeStyle=orthogonalEdgeStyle;rounded=0;orthogonalLoop=1;jettySize=auto;html=1;" edge="1" parent="1" source="AysuAXz7RPZp6C5GMnTe-152">
          <mxGeometry relative="1" as="geometry">
            <mxPoint x="1250" y="620.0000000000002" as="targetPoint" />
          </mxGeometry>
        </mxCell>
        <mxCell id="AysuAXz7RPZp6C5GMnTe-152" value="Horas" style="ellipse;whiteSpace=wrap;html=1;align=center;fontStyle=0;" vertex="1" parent="1">
          <mxGeometry x="1230" y="680" width="100" height="40" as="geometry" />
        </mxCell>
        <mxCell id="AysuAXz7RPZp6C5GMnTe-159" style="edgeStyle=orthogonalEdgeStyle;rounded=0;orthogonalLoop=1;jettySize=auto;html=1;entryX=0.5;entryY=1;entryDx=0;entryDy=0;" edge="1" parent="1" source="AysuAXz7RPZp6C5GMnTe-158" target="AysuAXz7RPZp6C5GMnTe-49">
          <mxGeometry relative="1" as="geometry" />
        </mxCell>
        <mxCell id="AysuAXz7RPZp6C5GMnTe-158" value="Horas" style="ellipse;whiteSpace=wrap;html=1;align=center;dashed=1;" vertex="1" parent="1">
          <mxGeometry x="690" y="570" width="100" height="40" as="geometry" />
        </mxCell>
        <mxCell id="AysuAXz7RPZp6C5GMnTe-164" style="edgeStyle=orthogonalEdgeStyle;rounded=0;orthogonalLoop=1;jettySize=auto;html=1;exitX=1;exitY=0;exitDx=0;exitDy=0;entryX=0.2;entryY=1;entryDx=0;entryDy=0;entryPerimeter=0;" edge="1" parent="1" source="AysuAXz7RPZp6C5GMnTe-89" target="AysuAXz7RPZp6C5GMnTe-49">
          <mxGeometry relative="1" as="geometry" />
        </mxCell>
        <mxCell id="AysuAXz7RPZp6C5GMnTe-167" value="&lt;u&gt;Sigla&lt;/u&gt;" style="whiteSpace=wrap;html=1;" vertex="1" parent="1">
          <mxGeometry x="760" y="920" width="120" height="60" as="geometry" />
        </mxCell>
        <mxCell id="AysuAXz7RPZp6C5GMnTe-168" value="Nome" style="whiteSpace=wrap;html=1;fontStyle=0" vertex="1" parent="1">
          <mxGeometry x="880" y="920" width="120" height="60" as="geometry" />
        </mxCell>
        <mxCell id="AysuAXz7RPZp6C5GMnTe-169" value="Custo" style="whiteSpace=wrap;html=1;fontStyle=0" vertex="1" parent="1">
          <mxGeometry x="1120" y="920" width="120" height="60" as="geometry" />
        </mxCell>
        <mxCell id="AysuAXz7RPZp6C5GMnTe-170" value="Horas" style="whiteSpace=wrap;html=1;fontStyle=0" vertex="1" parent="1">
          <mxGeometry x="1000" y="920" width="120" height="60" as="geometry" />
        </mxCell>
        <mxCell id="AysuAXz7RPZp6C5GMnTe-173" value="CURSO" style="text;html=1;align=left;verticalAlign=middle;resizable=0;points=[];autosize=1;strokeColor=none;fillColor=none;fontSize=15;" vertex="1" parent="1">
          <mxGeometry x="760" y="890" width="80" height="30" as="geometry" />
        </mxCell>
        <mxCell id="AysuAXz7RPZp6C5GMnTe-174" value="&lt;u&gt;Sigla&lt;/u&gt;" style="whiteSpace=wrap;html=1;" vertex="1" parent="1">
          <mxGeometry x="760" y="1080" width="120" height="60" as="geometry" />
        </mxCell>
        <mxCell id="AysuAXz7RPZp6C5GMnTe-175" value="Nome" style="whiteSpace=wrap;html=1;fontStyle=0" vertex="1" parent="1">
          <mxGeometry x="880" y="1080" width="120" height="60" as="geometry" />
        </mxCell>
        <mxCell id="AysuAXz7RPZp6C5GMnTe-232" style="edgeStyle=orthogonalEdgeStyle;rounded=0;orthogonalLoop=1;jettySize=auto;html=1;entryX=0.5;entryY=1;entryDx=0;entryDy=0;" edge="1" parent="1" source="AysuAXz7RPZp6C5GMnTe-176" target="AysuAXz7RPZp6C5GMnTe-167">
          <mxGeometry relative="1" as="geometry">
            <Array as="points">
              <mxPoint x="1060" y="1020" />
              <mxPoint x="820" y="1020" />
            </Array>
          </mxGeometry>
        </mxCell>
        <mxCell id="AysuAXz7RPZp6C5GMnTe-176" value="Curso" style="whiteSpace=wrap;html=1;fontStyle=0" vertex="1" parent="1">
          <mxGeometry x="1000" y="1080" width="120" height="60" as="geometry" />
        </mxCell>
        <mxCell id="AysuAXz7RPZp6C5GMnTe-177" value="MODULO" style="text;html=1;align=left;verticalAlign=middle;resizable=0;points=[];autosize=1;strokeColor=none;fillColor=none;fontSize=15;" vertex="1" parent="1">
          <mxGeometry x="760" y="1050" width="90" height="30" as="geometry" />
        </mxCell>
        <mxCell id="AysuAXz7RPZp6C5GMnTe-229" style="edgeStyle=orthogonalEdgeStyle;rounded=0;orthogonalLoop=1;jettySize=auto;html=1;exitX=0;exitY=0.5;exitDx=0;exitDy=0;entryX=0;entryY=0.75;entryDx=0;entryDy=0;" edge="1" parent="1" source="AysuAXz7RPZp6C5GMnTe-179" target="AysuAXz7RPZp6C5GMnTe-167">
          <mxGeometry relative="1" as="geometry">
            <mxPoint x="720.0000000000002" y="1269.8695652173915" as="targetPoint" />
            <Array as="points">
              <mxPoint x="720" y="1270" />
              <mxPoint x="720" y="965" />
            </Array>
          </mxGeometry>
        </mxCell>
        <mxCell id="AysuAXz7RPZp6C5GMnTe-179" value="&lt;u&gt;Curso&lt;/u&gt;" style="whiteSpace=wrap;html=1;" vertex="1" parent="1">
          <mxGeometry x="760" y="1240" width="120" height="60" as="geometry" />
        </mxCell>
        <mxCell id="AysuAXz7RPZp6C5GMnTe-236" style="edgeStyle=orthogonalEdgeStyle;rounded=0;orthogonalLoop=1;jettySize=auto;html=1;entryX=0.5;entryY=1;entryDx=0;entryDy=0;" edge="1" parent="1" source="AysuAXz7RPZp6C5GMnTe-180" target="AysuAXz7RPZp6C5GMnTe-201">
          <mxGeometry relative="1" as="geometry">
            <Array as="points">
              <mxPoint x="940" y="1340" />
              <mxPoint x="1335" y="1340" />
            </Array>
          </mxGeometry>
        </mxCell>
        <mxCell id="AysuAXz7RPZp6C5GMnTe-180" value="&lt;div&gt;&lt;u&gt;Aluno&lt;/u&gt;&lt;/div&gt;" style="whiteSpace=wrap;html=1;fontStyle=0" vertex="1" parent="1">
          <mxGeometry x="880" y="1240" width="120" height="60" as="geometry" />
        </mxCell>
        <mxCell id="AysuAXz7RPZp6C5GMnTe-181" value="Pago" style="whiteSpace=wrap;html=1;fontStyle=0" vertex="1" parent="1">
          <mxGeometry x="1000" y="1240" width="120" height="60" as="geometry" />
        </mxCell>
        <mxCell id="AysuAXz7RPZp6C5GMnTe-182" value="Data" style="whiteSpace=wrap;html=1;fontStyle=0" vertex="1" parent="1">
          <mxGeometry x="1120" y="1240" width="120" height="60" as="geometry" />
        </mxCell>
        <mxCell id="AysuAXz7RPZp6C5GMnTe-184" value="MATRICULA" style="text;html=1;align=left;verticalAlign=middle;resizable=0;points=[];autosize=1;strokeColor=none;fillColor=none;fontSize=15;" vertex="1" parent="1">
          <mxGeometry x="760" y="1210" width="110" height="30" as="geometry" />
        </mxCell>
        <mxCell id="AysuAXz7RPZp6C5GMnTe-185" value="&lt;u&gt;Sigla&lt;/u&gt;" style="whiteSpace=wrap;html=1;" vertex="1" parent="1">
          <mxGeometry x="1400" y="920" width="120" height="60" as="geometry" />
        </mxCell>
        <mxCell id="AysuAXz7RPZp6C5GMnTe-186" value="Nome" style="whiteSpace=wrap;html=1;fontStyle=0" vertex="1" parent="1">
          <mxGeometry x="1520" y="920" width="120" height="60" as="geometry" />
        </mxCell>
        <mxCell id="AysuAXz7RPZp6C5GMnTe-188" value="AREA" style="text;html=1;align=left;verticalAlign=middle;resizable=0;points=[];autosize=1;strokeColor=none;fillColor=none;fontSize=15;" vertex="1" parent="1">
          <mxGeometry x="1400" y="890" width="60" height="30" as="geometry" />
        </mxCell>
        <mxCell id="AysuAXz7RPZp6C5GMnTe-239" style="edgeStyle=orthogonalEdgeStyle;rounded=0;orthogonalLoop=1;jettySize=auto;html=1;entryX=0.75;entryY=1;entryDx=0;entryDy=0;" edge="1" parent="1" source="AysuAXz7RPZp6C5GMnTe-189" target="AysuAXz7RPZp6C5GMnTe-185">
          <mxGeometry relative="1" as="geometry">
            <Array as="points">
              <mxPoint x="1700" y="1020" />
              <mxPoint x="1490" y="1020" />
            </Array>
          </mxGeometry>
        </mxCell>
        <mxCell id="AysuAXz7RPZp6C5GMnTe-189" value="SuperArea" style="whiteSpace=wrap;html=1;fontStyle=0" vertex="1" parent="1">
          <mxGeometry x="1640" y="920" width="120" height="60" as="geometry" />
        </mxCell>
        <mxCell id="AysuAXz7RPZp6C5GMnTe-228" style="edgeStyle=orthogonalEdgeStyle;rounded=0;orthogonalLoop=1;jettySize=auto;html=1;entryX=0;entryY=0.25;entryDx=0;entryDy=0;" edge="1" parent="1" source="AysuAXz7RPZp6C5GMnTe-190" target="AysuAXz7RPZp6C5GMnTe-167">
          <mxGeometry relative="1" as="geometry">
            <mxPoint x="680.0000000000002" y="940" as="targetPoint" />
            <Array as="points">
              <mxPoint x="680" y="1430" />
              <mxPoint x="680" y="935" />
            </Array>
          </mxGeometry>
        </mxCell>
        <mxCell id="AysuAXz7RPZp6C5GMnTe-190" value="&lt;u&gt;Curso&lt;/u&gt;" style="whiteSpace=wrap;html=1;" vertex="1" parent="1">
          <mxGeometry x="760" y="1400" width="120" height="60" as="geometry" />
        </mxCell>
        <mxCell id="AysuAXz7RPZp6C5GMnTe-191" value="CPF" style="whiteSpace=wrap;html=1;fontStyle=4" vertex="1" parent="1">
          <mxGeometry x="880" y="1400" width="120" height="60" as="geometry" />
        </mxCell>
        <mxCell id="AysuAXz7RPZp6C5GMnTe-192" value="Nome" style="whiteSpace=wrap;html=1;fontStyle=0" vertex="1" parent="1">
          <mxGeometry x="1000" y="1400" width="120" height="60" as="geometry" />
        </mxCell>
        <mxCell id="AysuAXz7RPZp6C5GMnTe-195" value="PROFESSOR" style="text;html=1;align=left;verticalAlign=middle;resizable=0;points=[];autosize=1;strokeColor=none;fillColor=none;fontSize=15;" vertex="1" parent="1">
          <mxGeometry x="760" y="1370" width="120" height="30" as="geometry" />
        </mxCell>
        <mxCell id="AysuAXz7RPZp6C5GMnTe-196" value="&lt;u&gt;Sigla&lt;/u&gt;" style="whiteSpace=wrap;html=1;" vertex="1" parent="1">
          <mxGeometry x="1280" y="1080" width="120" height="60" as="geometry" />
        </mxCell>
        <mxCell id="AysuAXz7RPZp6C5GMnTe-197" value="Nome" style="whiteSpace=wrap;html=1;fontStyle=0" vertex="1" parent="1">
          <mxGeometry x="1400" y="1080" width="120" height="60" as="geometry" />
        </mxCell>
        <mxCell id="AysuAXz7RPZp6C5GMnTe-198" value="Horas" style="whiteSpace=wrap;html=1;fontStyle=0" vertex="1" parent="1">
          <mxGeometry x="1520" y="1080" width="120" height="60" as="geometry" />
        </mxCell>
        <mxCell id="AysuAXz7RPZp6C5GMnTe-199" value="TOPICO" style="text;html=1;align=left;verticalAlign=middle;resizable=0;points=[];autosize=1;strokeColor=none;fillColor=none;fontSize=15;" vertex="1" parent="1">
          <mxGeometry x="1160" y="1050" width="80" height="30" as="geometry" />
        </mxCell>
        <mxCell id="AysuAXz7RPZp6C5GMnTe-230" style="edgeStyle=orthogonalEdgeStyle;rounded=0;orthogonalLoop=1;jettySize=auto;html=1;entryX=0.5;entryY=1;entryDx=0;entryDy=0;" edge="1" parent="1" source="AysuAXz7RPZp6C5GMnTe-200" target="AysuAXz7RPZp6C5GMnTe-174">
          <mxGeometry relative="1" as="geometry">
            <Array as="points">
              <mxPoint x="1260" y="1180" />
              <mxPoint x="820" y="1180" />
            </Array>
          </mxGeometry>
        </mxCell>
        <mxCell id="AysuAXz7RPZp6C5GMnTe-200" value="Módulo" style="whiteSpace=wrap;html=1;fontStyle=4" vertex="1" parent="1">
          <mxGeometry x="1160" y="1080" width="120" height="60" as="geometry" />
        </mxCell>
        <mxCell id="AysuAXz7RPZp6C5GMnTe-201" value="&lt;u&gt;CPF&lt;/u&gt;" style="whiteSpace=wrap;html=1;fontStyle=0" vertex="1" parent="1">
          <mxGeometry x="1275" y="1240" width="120" height="60" as="geometry" />
        </mxCell>
        <mxCell id="AysuAXz7RPZp6C5GMnTe-202" value="Nome" style="whiteSpace=wrap;html=1;fontStyle=0" vertex="1" parent="1">
          <mxGeometry x="1395" y="1240" width="120" height="60" as="geometry" />
        </mxCell>
        <mxCell id="AysuAXz7RPZp6C5GMnTe-203" value="Sobrenome" style="whiteSpace=wrap;html=1;fontStyle=0" vertex="1" parent="1">
          <mxGeometry x="1515" y="1240" width="120" height="60" as="geometry" />
        </mxCell>
        <mxCell id="AysuAXz7RPZp6C5GMnTe-204" value="ALUNO" style="text;html=1;align=left;verticalAlign=middle;resizable=0;points=[];autosize=1;strokeColor=none;fillColor=none;fontSize=15;fontStyle=0" vertex="1" parent="1">
          <mxGeometry x="1275" y="1210" width="70" height="30" as="geometry" />
        </mxCell>
        <mxCell id="AysuAXz7RPZp6C5GMnTe-205" value="Sexo" style="whiteSpace=wrap;html=1;fontStyle=0" vertex="1" parent="1">
          <mxGeometry x="1635" y="1240" width="120" height="60" as="geometry" />
        </mxCell>
        <mxCell id="AysuAXz7RPZp6C5GMnTe-208" value="&lt;div&gt;Data de&lt;/div&gt;&lt;div&gt;Nascimento&lt;/div&gt;" style="ellipse;whiteSpace=wrap;html=1;align=center;fontStyle=0;" vertex="1" parent="1">
          <mxGeometry x="590" y="600" width="100" height="40" as="geometry" />
        </mxCell>
        <mxCell id="AysuAXz7RPZp6C5GMnTe-211" value="DataNasc" style="whiteSpace=wrap;html=1;fontStyle=0" vertex="1" parent="1">
          <mxGeometry x="1755" y="1240" width="120" height="60" as="geometry" />
        </mxCell>
        <mxCell id="AysuAXz7RPZp6C5GMnTe-213" value="&amp;nbsp;" style="text;whiteSpace=wrap;html=1;" vertex="1" parent="1">
          <mxGeometry x="10" y="790" width="40" height="40" as="geometry" />
        </mxCell>
        <mxCell id="AysuAXz7RPZp6C5GMnTe-238" style="edgeStyle=orthogonalEdgeStyle;rounded=0;orthogonalLoop=1;jettySize=auto;html=1;entryX=0.25;entryY=1;entryDx=0;entryDy=0;" edge="1" parent="1" source="AysuAXz7RPZp6C5GMnTe-214" target="AysuAXz7RPZp6C5GMnTe-185">
          <mxGeometry relative="1" as="geometry">
            <Array as="points">
              <mxPoint x="1300" y="1020" />
              <mxPoint x="1430" y="1020" />
            </Array>
          </mxGeometry>
        </mxCell>
        <mxCell id="AysuAXz7RPZp6C5GMnTe-214" value="Area" style="whiteSpace=wrap;html=1;fontStyle=0" vertex="1" parent="1">
          <mxGeometry x="1240" y="920" width="120" height="60" as="geometry" />
        </mxCell>
      </root>
    </mxGraphModel>
  </diagram>
</mxfile>
